HIERARCHY
ROOT joint_Root
{
	OFFSET 0.0 0.0 0.0
	CHANNELS 6 Xposition Yposition Zposition Zrotation Xrotation Yrotation 
	JOINT Hips
	{
		OFFSET 4.5925 91.4895 -427.239
		CHANNELS 6 Xposition Yposition Zposition Zrotation Xrotation Yrotation 
		JOINT Spine
		{
			OFFSET 15.7357 0.0 0.0
			CHANNELS 6 Xposition Yposition Zposition Zrotation Xrotation Yrotation 
			JOINT Chest
			{
				OFFSET 8.98455 -0.406207 0.0
				CHANNELS 6 Xposition Yposition Zposition Zrotation Xrotation Yrotation 
				JOINT Neck
				{
					OFFSET 16.3773 0.0 0.0
					CHANNELS 6 Xposition Yposition Zposition Zrotation Xrotation Yrotation 
					JOINT Head
					{
						OFFSET 6.45672 0.0 0.0
						CHANNELS 6 Xposition Yposition Zposition Zrotation Xrotation Yrotation 
						End Site
						{
							OFFSET 0.0 0.0 0.0
						}
					}
				}
				JOINT Shoulder_L
				{
					OFFSET 12.9942 -0.242716 4.98039
					CHANNELS 6 Xposition Yposition Zposition Zrotation Xrotation Yrotation 
					JOINT UpperArm_L
					{
						OFFSET 5.34809 0.0 0.0
						CHANNELS 6 Xposition Yposition Zposition Zrotation Xrotation Yrotation 
						JOINT LowerArm_L
						{
							OFFSET 24.3286 1.87007e-05 0.0
							CHANNELS 6 Xposition Yposition Zposition Zrotation Xrotation Yrotation 
							JOINT Hand_L
							{
								OFFSET 22.2916 0.0 0.0
								CHANNELS 6 Xposition Yposition Zposition Zrotation Xrotation Yrotation 
								End Site
								{
									OFFSET 0.0 0.0 0.0
								}
							}
						}
					}
				}
				JOINT Shoulder_R
				{
					OFFSET 12.9945 -0.242716 -4.98039
					CHANNELS 6 Xposition Yposition Zposition Zrotation Xrotation Yrotation 
					JOINT UpperArm_R
					{
						OFFSET -5.34813 0.0 0.0
						CHANNELS 6 Xposition Yposition Zposition Zrotation Xrotation Yrotation 
						JOINT LowerArm_R
						{
							OFFSET -24.3289 0.000322201 0.0
							CHANNELS 6 Xposition Yposition Zposition Zrotation Xrotation Yrotation 
							JOINT Hand_R
							{
								OFFSET -22.2915 -0.000108084 0.0
								CHANNELS 6 Xposition Yposition Zposition Zrotation Xrotation Yrotation 
								End Site
								{
									OFFSET 0.0 0.0 0.0
								}
							}
						}
					}
				}
			}
		}
		JOINT UpperLeg_L
		{
			OFFSET -2.19248 -6.46944 0.0
			CHANNELS 6 Xposition Yposition Zposition Zrotation Xrotation Yrotation 
			JOINT LowerLeg_L
			{
				OFFSET 39.0811 0.0 -1.23785e-05
				CHANNELS 6 Xposition Yposition Zposition Zrotation Xrotation Yrotation 
				JOINT Foot_L
				{
					OFFSET 40.9854 0.0 -1.26872e-05
					CHANNELS 6 Xposition Yposition Zposition Zrotation Xrotation Yrotation 
					JOINT Toes_L
					{
						OFFSET 11.7543 0.0 0.0
						CHANNELS 6 Xposition Yposition Zposition Zrotation Xrotation Yrotation 
						End Site
						{
							OFFSET 0.0 0.0 0.0
						}
					}
				}
			}
		}
		JOINT UpperLeg_R
		{
			OFFSET -2.19251 6.46944 0.0
			CHANNELS 6 Xposition Yposition Zposition Zrotation Xrotation Yrotation 
			JOINT LowerLeg_R
			{
				OFFSET -39.0811 -0.00228153 -0.0401928
				CHANNELS 6 Xposition Yposition Zposition Zrotation Xrotation Yrotation 
				JOINT Foot_R
				{
					OFFSET -40.9854 0.0 0.0
					CHANNELS 6 Xposition Yposition Zposition Zrotation Xrotation Yrotation 
					JOINT Toes_R
					{
						OFFSET -11.7543 0.0 0.0
						CHANNELS 6 Xposition Yposition Zposition Zrotation Xrotation Yrotation 
						End Site
						{
							OFFSET 0.0 0.0 0.0
						}
					}
				}
			}
		}
	}
}
MOTION
Frames:	6
Frame Time:	0.0333333
0.000000 0.000000 0.000000 0.000000 0.000000 -0.000000 -1.069950 90.467900 4.496320 89.707600 -2.135000 10.439800 15.735700 0.000005 -0.000001 86.992100 82.444200 -86.926400 8.984550 -0.406207 -0.000000 7.325800 -0.790268 0.181977 16.377300 -0.000001 -0.000001 -0.838350 -3.023170 1.280170 6.456720 -0.000001 -0.000000 -21.400200 -2.307730 1.223810 12.994200 -0.242716 4.980390 -91.885000 7.010200 -74.908500 5.348090 -0.000007 -0.000001 -62.839600 30.283900 -10.734700 24.328600 0.000019 0.000005 3.817160 25.793000 -8.717510 22.291600 -0.000001 0.000005 12.146400 5.089500 5.353030 12.994500 -0.242716 -4.980390 88.503200 11.775400 -82.703300 -5.348130 -0.000001 -0.000004 -60.764300 23.675300 -6.156540 -24.328900 0.000322 -0.000009 0.744718 5.109250 -8.315200 -22.291500 -0.000108 -0.000004 15.862200 5.280890 0.602138 -2.192480 -6.469440 -0.000000 -174.341000 -10.465300 4.168370 39.081100 -0.000007 -0.000012 -0.170234 0.300524 29.529900 40.985400 -0.000006 -0.000013 -0.502427 4.857860 -72.982500 11.754300 -0.000000 0.000003 -0.000083 -0.000878 -16.611400 -2.192510 6.469440 -0.000001 172.877000 19.279100 -174.149000 -39.081100 -0.002282 -0.040193 -0.205304 0.379610 28.790500 -40.985400 0.000008 0.000006 1.697640 10.411500 -73.264100 -11.754300 -0.000006 -0.000006 -0.003479 -0.045910 -18.440400
0.000000 0.000000 0.000000 0.000000 0.000000 -0.000000 -1.028240 90.474800 4.539700 89.690500 -2.202910 10.222100 15.735700 0.000005 -0.000001 86.709500 82.459800 -86.667700 8.984550 -0.406207 -0.000000 7.290480 -0.862595 0.138449 16.377300 -0.000001 -0.000001 -0.555783 -3.071500 1.255010 6.456720 -0.000001 -0.000000 -21.153000 -2.446540 1.198300 12.994200 -0.242716 4.980390 -91.901500 6.815800 -74.371600 5.348090 -0.000007 -0.000001 -62.374000 26.936600 -8.424810 24.328600 0.000019 0.000005 3.682710 25.139300 -8.615220 22.291600 -0.000001 0.000005 12.186400 5.082310 5.516110 12.994500 -0.242716 -4.980390 88.405500 11.600500 -82.118300 -5.348130 -0.000001 -0.000004 -59.943500 21.341100 -4.013200 -24.328900 0.000322 -0.000009 0.684940 4.677150 -8.353630 -22.291500 -0.000108 -0.000004 15.200900 5.280290 0.618131 -2.192480 -6.469440 -0.000000 -174.392000 -10.502200 4.002110 39.081100 -0.000007 -0.000012 -0.170739 0.301958 29.485800 40.985400 -0.000006 -0.000013 -0.491861 4.801710 -72.993700 11.754300 -0.000000 0.000003 -0.000082 -0.000867 -16.611000 -2.192510 6.469440 -0.000001 172.923000 19.283400 -174.323000 -39.081100 -0.002282 -0.040193 -0.207484 0.384674 28.721600 -40.985400 0.000008 0.000006 1.668560 10.472500 -73.238800 -11.754300 -0.000006 -0.000006 -0.003613 -0.047351 -18.499100
0.000000 0.000000 0.000000 0.000000 0.000000 -0.000000 -0.983287 90.489800 4.554950 89.665900 -2.353320 10.036600 15.735700 0.000005 -0.000001 86.766000 82.472000 -86.738500 8.984550 -0.406207 -0.000000 7.266870 -0.846384 0.108711 16.377300 -0.000001 -0.000001 -0.259887 -3.158210 1.257760 6.456720 -0.000001 -0.000000 -20.783000 -2.587450 1.054050 12.994200 -0.242716 4.980390 -91.926900 6.677660 -73.863900 5.348090 -0.000007 -0.000001 -61.525800 24.904000 -6.614370 24.328600 0.000019 0.000005 4.001610 25.434100 -9.251110 22.291600 -0.000001 0.000005 11.941700 5.084910 5.457290 12.994500 -0.242716 -4.980390 88.289400 11.386100 -81.397600 -5.348130 -0.000001 -0.000004 -59.047900 20.026100 -2.170310 -24.328900 0.000322 -0.000009 0.674100 4.208180 -9.123160 -22.291500 -0.000108 -0.000004 14.616900 5.288090 0.402363 -2.192480 -6.469440 -0.000000 -174.427000 -10.613300 3.880770 39.081100 -0.000007 -0.000012 -0.168573 0.299017 29.412700 40.985400 -0.000006 -0.000013 -0.489586 4.699810 -72.980500 11.754300 -0.000000 0.000003 -0.000092 -0.000955 -16.614300 -2.192510 6.469440 -0.000001 172.998000 19.231400 -174.504000 -39.081100 -0.002282 -0.040193 -0.203768 0.379123 28.643100 -40.985400 0.000008 0.000006 1.650760 10.539800 -73.176900 -11.754300 -0.000006 -0.000006 -0.003413 -0.045186 -18.410900
0.000000 0.000000 0.000000 0.000000 0.000000 -0.000000 -0.945155 90.502500 4.570820 89.634800 -2.442980 9.877790 15.735700 0.000005 -0.000001 86.588700 82.460300 -86.582300 8.984550 -0.406207 -0.000000 7.287440 -0.894004 0.069744 16.377300 -0.000001 -0.000001 0.127421 -3.288010 1.277660 6.456720 -0.000001 -0.000000 -20.451500 -2.664230 0.934707 12.994200 -0.242716 4.980390 -91.949900 6.532040 -73.339200 5.348090 -0.000007 -0.000001 -60.622800 23.955000 -5.390200 24.328600 0.000019 0.000005 4.371480 25.462900 -10.082100 22.291600 -0.000001 0.000005 12.025800 5.096030 5.204370 12.994500 -0.242716 -4.980390 88.168000 11.176600 -80.629600 -5.348130 -0.000001 -0.000004 -58.204100 18.825700 -0.856442 -24.328900 0.000322 -0.000009 0.665147 3.718540 -10.165400 -22.291500 -0.000108 -0.000004 14.091800 5.302510 0.001182 -2.192480 -6.469440 -0.000000 -174.457000 -10.639400 3.776980 39.081100 -0.000007 -0.000012 -0.167361 0.297637 29.349300 40.985400 -0.000006 -0.000013 -0.478408 4.642550 -72.975600 11.754300 -0.000000 0.000003 -0.000085 -0.000899 -16.612200 -2.192510 6.469440 -0.000001 173.051000 19.216000 -174.629000 -39.081100 -0.002282 -0.040193 -0.205589 0.383894 28.552900 -40.985400 0.000008 0.000006 1.623190 10.593500 -73.121600 -11.754300 -0.000006 -0.000006 -0.003668 -0.047941 -18.523100
0.000000 0.000000 0.000000 0.000000 0.000000 -0.000000 -0.889744 90.518400 4.559470 89.613000 -2.567240 9.748150 15.735700 0.000005 -0.000001 86.407800 82.443800 -86.423800 8.984550 -0.406207 -0.000000 7.317260 -0.943309 0.028271 16.377300 -0.000001 -0.000001 0.580949 -3.386720 1.270630 6.456720 -0.000001 -0.000000 -20.010400 -2.760680 0.803315 12.994200 -0.242716 4.980390 -91.966800 6.406230 -72.892700 5.348090 -0.000007 -0.000001 -59.953900 23.275100 -4.614660 24.328600 0.000019 0.000005 4.677030 25.306200 -10.834900 22.291600 -0.000001 0.000005 12.242200 5.102370 5.059490 12.994500 -0.242716 -4.980390 88.051500 11.011700 -79.900800 -5.348130 -0.000001 -0.000004 -57.504900 17.038300 -0.042180 -24.328900 0.000322 -0.000009 0.611784 3.090440 -11.222400 -22.291500 -0.000108 -0.000004 13.781800 5.315630 -0.370548 -2.192480 -6.469440 -0.000000 -174.502000 -10.705000 3.663450 39.081100 -0.000007 -0.000012 -0.166283 0.296296 29.301700 40.985400 -0.000006 -0.000013 -0.476537 4.522600 -72.944100 11.754300 -0.000000 0.000003 -0.000086 -0.000901 -16.612200 -2.192510 6.469440 -0.000001 173.109000 19.179100 -174.774000 -39.081100 -0.002282 -0.040193 -0.199129 0.373005 28.489500 -40.985400 0.000008 0.000006 1.607390 10.651300 -73.050600 -11.754300 -0.000006 -0.000006 -0.003361 -0.044623 -18.388000
0.000000 0.000000 0.000000 0.000000 0.000000 -0.000000 -0.837262 90.523300 4.527900 89.580200 -2.691620 9.706650 15.735700 0.000005 -0.000001 86.191300 82.410800 -86.217500 8.984550 -0.406207 -0.000000 7.379480 -1.004350 0.012473 16.377300 -0.000001 -0.000001 1.132440 -3.483140 1.225020 6.456720 -0.000001 -0.000000 -19.516000 -2.821350 0.601540 12.994200 -0.242716 4.980390 -91.982000 6.307070 -72.515200 5.348090 -0.000007 -0.000001 -59.648700 22.434300 -4.279330 24.328600 0.000019 0.000005 4.870440 25.104700 -11.356100 22.291600 -0.000001 0.000005 12.433000 5.106670 4.960140 12.994500 -0.242716 -4.980390 87.947900 10.901200 -79.271300 -5.348130 -0.000001 -0.000004 -56.947600 14.680600 0.266971 -24.328900 0.000322 -0.000009 0.505376 2.371470 -12.060800 -22.291500 -0.000108 -0.000004 13.732500 5.327340 -0.708346 -2.192480 -6.469440 -0.000000 -174.531000 -10.715400 3.632090 39.081100 -0.000007 -0.000012 -0.164493 0.293132 29.299500 40.985400 -0.000006 -0.000013 -0.454681 4.432410 -72.957200 11.754300 -0.000000 0.000003 -0.000083 -0.000874 -16.611200 -2.192510 6.469440 -0.000001 173.125000 19.101500 -174.844000 -39.081100 -0.002282 -0.040193 -0.204623 0.383456 28.468900 -40.985400 0.000008 0.000006 1.577720 10.712300 -72.999900 -11.754300 -0.000006 -0.000006 -0.003506 -0.046204 -18.452300
